<?xml version="1.0" encoding="UTF-8"?> <svg xmlns="http://www.w3.org/2000/svg" id="Layer_1" data-name="Layer 1" viewBox="0 0 350 100"><defs><style> .cls-1 { fill: #f47425; } </style></defs><g id="Layer-2"><path d="M0,.5h66.89v21.41l-16.05,18.73-16.05-18.73h-16.05l24.08,28.09-24.08,28.09h16.05l16.05-18.73,16.05,18.73v21.41H0V.5Z"></path><path d="M58.86,50l24.08-28.09v56.19l-24.08-28.09Z"></path><path class="cls-1" d="M82.95,21.91l-5.35,6.24v43.7l5.35,6.24V21.91Z"></path><path class="cls-1" d="M50.84,59.36l-2.68,3.12,13.38,15.61v21.41h5.35v-21.41l-16.05-18.73ZM28.26,66.98c-.54.54-1.08,1.09-1.61,1.62,0,.02.02.04.03.06.02.04.02.08.04.12l1.54-1.8Z"></path><path class="cls-1" d="M13.38,21.91l24.08,28.09-24.08,28.09h5.35l24.08-28.09-24.08-28.09h-5.35Z"></path><path class="cls-1" d="M61.54.5v21.41l-13.38,15.61,2.68,3.12,16.05-18.73V.5h-5.35Z"></path></g><g id="Layer-2_2" data-name="Layer-2 2"><g><path d="M118.8,78.18v-4.99h-21.97v-4.43h16.75v-4.99h-16.75v-4.43h21.97v-4.99h-27.29v23.85h27.29Z"></path><path d="M161.48,59.35h14.3c1.06,0,1.85.32,2.5,1,.76.8,1.05,1.9,1.05,3.07s-.29,2.28-1.05,3.07c-.66.71-1.43,1.02-2.5,1.02h-14.3v-8.17ZM161.48,78.2v-5.69h14.34c2.68,0,4.82-.9,6.44-2.6,1.8-1.89,2.33-4.25,2.33-6.42,0-1.53-.25-3.19-1.03-4.69-1.36-2.62-3.96-4.45-7.74-4.45h-19.59v23.85h5.26Z"></path><path d="M271.23,78.2v-18.83h11.33v-4.99h-28.36v4.99h11.26v18.83h5.78Z"></path><path d="M307.65,78.15c2.13,0,3.9-.73,5.18-2.11,1.42-1.53,1.83-3.47,1.83-5.16s-.4-3.59-1.85-5.11c-1.28-1.36-3.05-2.08-5.16-2.08h-14.3c-1.08,0-1.8-.82-1.8-2.25s.74-2.2,1.8-2.2h20.44v-5h-20.49c-2.13,0-3.85.73-5.15,2.11-1.45,1.51-1.86,3.46-1.86,5.16s.42,3.59,1.86,5.11c1.29,1.34,3.02,2.08,5.15,2.08h14.3c1.09,0,1.8.82,1.8,2.23s-.72,2.21-1.8,2.21h-20.43v5h20.47Z"></path><path d="M216.73,78.18v-4.99h-21.97v-4.43h16.75v-4.99h-16.75v-4.43h21.97v-4.99h-27.29v23.85h27.29Z"></path><path d="M227.14,59.35h13.77c1.02,0,1.78.32,2.4,1,.73.8,1.01,1.9,1.01,3.07s-.28,2.28-1.01,3.07c-.64.71-1.38,1.02-2.4,1.02h-13.77v-8.17ZM227.14,78.2v-5.69h11.87l4.81,5.69h6.63l-5.56-6.56c.89-.44,1.63-1.04,2.26-1.72,1.74-1.9,2.24-4.28,2.24-6.44,0-1.53-.25-3.19-.99-4.69-1.31-2.62-3.81-4.45-7.45-4.45h-18.85v23.85h5.06Z"></path><path d="M130.82,78.09l6.95-8.04,6.94,8.04h6.68l-10.29-11.91,10.29-11.91h-6.68l-6.94,8.06-6.95-8.06h-6.67l10.28,11.91-10.28,11.91h6.67Z"></path></g><path class="cls-1" d="M96.76,26.89h11.65c1.85,0,3.25.58,4.41,1.78,1.33,1.41,1.79,3.31,1.79,5.22s-.46,3.68-1.79,5.05c-1.16,1.22-2.54,1.78-4.41,1.78h-11.65v-13.84ZM108.45,45.72c4.89,0,8.28-2.44,10.03-5.82,1.03-1.97,1.39-4.14,1.39-6.16s-.35-4.16-1.39-6.09c-1.77-3.39-5.19-5.75-10.03-5.75h-16.94v23.81h16.94Z"></path><path class="cls-1" d="M151.44,45.72v-5h-21.97v-4.44h16.75v-5h-16.75v-4.44h21.97v-5h-27.29v23.87h27.29Z"></path><path class="cls-1" d="M195.29,38.95c-1.17-1.36-1.62-3.19-1.62-5.05v-.15c0-1.88.45-3.71,1.62-5.07,1.05-1.2,2.33-1.78,4.01-1.78h7.56c1.69,0,2.96.58,4.01,1.78,1.2,1.37,1.64,3.22,1.64,5.11s-.43,3.77-1.62,5.16c-1.05,1.22-2.33,1.8-4.03,1.8h-7.56c-1.68,0-2.96-.58-4.01-1.78ZM190.16,39.97c1.62,3.38,4.72,5.75,9.11,5.75h7.62c4.39,0,7.52-2.36,9.13-5.75.94-1.93,1.24-4.07,1.24-6.09s-.31-4.21-1.23-6.17c-1.62-3.43-4.71-5.8-9.14-5.8h-7.62c-4.4,0-7.49,2.36-9.11,5.75-.94,1.93-1.26,4.04-1.26,6.06s.28,4.22,1.26,6.26Z"></path><path class="cls-1" d="M173.13,45.72l11.49-23.87h-4.98l-9.07,18.87h-.26l-9.08-18.87h-4.98l11.49,23.87h5.37Z"></path><path class="cls-1" d="M275.54,45.7c2.13,0,3.9-.73,5.18-2.11,1.42-1.53,1.83-3.47,1.83-5.15s-.4-3.58-1.85-5.1c-1.28-1.36-3.05-2.07-5.16-2.07h-14.3c-1.08,0-1.8-.82-1.8-2.24s.74-2.19,1.8-2.19h20.44v-4.99h-20.49c-2.13,0-3.85.73-5.15,2.11-1.45,1.51-1.86,3.45-1.86,5.15s.42,3.58,1.86,5.1c1.29,1.34,3.02,2.07,5.15,2.07h14.3c1.09,0,1.8.82,1.8,2.22s-.72,2.21-1.8,2.21h-20.43v4.99h20.47Z"></path><path class="cls-1" d="M227.34,26.89h14.3c1.06,0,1.85.32,2.5,1,.76.8,1.05,1.9,1.05,3.07s-.29,2.27-1.05,3.07c-.66.71-1.43,1.02-2.5,1.02h-14.3v-8.16ZM227.34,45.72v-5.68h14.34c2.68,0,4.82-.9,6.44-2.59,1.8-1.88,2.33-4.24,2.33-6.41,0-1.53-.25-3.19-1.03-4.68-1.36-2.61-3.96-4.44-7.74-4.44h-19.59v23.81h5.26Z"></path></g></svg> 